<?xml version="1.0" standalone="no"?>
<!DOCTYPE svg PUBLIC "-//W3C//DTD SVG 20010904//EN"
"http://www.w3.org/TR/2001/REC-SVG-20010904/DTD/svg10.dtd">
<svg version="1.0" xmlns="http://www.w3.org/2000/svg"
width="500.000000pt" height="500.000000pt" viewBox="0 0 500.000000 500.000000"
preserveAspectRatio="xMidYMid meet">

<g transform="translate(0.000000,500.000000) scale(0.100000,-0.100000)"
fill="#000000" stroke="none">
<path d="M1540 4455 l-223 -245 -420 0 c-463 0 -492 -3 -597 -63 -127 -72
-222 -212 -241 -354 -12 -94 -11 -2966 1 -3071 21 -185 147 -341 325 -402 57
-20 83 -20 2115 -20 2032 0 2058 0 2115 20 119 41 217 123 273 228 66 123 62
23 62 1699 0 1072 -3 1538 -11 1575 -37 179 -178 327 -356 373 -46 12 -138 15
-478 15 l-420 0 -223 245 -223 245 -738 0 -737 0 -224 -245z m1088 -986 c203
-22 368 -80 533 -187 359 -234 560 -605 561 -1037 1 -321 -111 -600 -337 -833
-146 -152 -269 -235 -454 -304 -155 -59 -291 -81 -471 -75 -165 6 -249 21
-388 73 -170 63 -284 136 -424 272 -185 179 -299 391 -349 645 -24 122 -26
340 -4 454 100 528 534 930 1071 992 102 12 154 12 262 0z"/>
<path d="M2410 3030 c-264 -32 -488 -190 -610 -430 -57 -113 -74 -192 -75
-345 0 -148 9 -194 62 -320 121 -287 441 -482 757 -462 350 23 631 257 717
597 31 121 24 310 -15 425 -121 357 -469 579 -836 535z"/>
</g>
</svg>